<?xml version="1.0" standalone="no"?>
<!DOCTYPE svg PUBLIC "-//W3C//DTD SVG 20010904//EN"
 "http://www.w3.org/TR/2001/REC-SVG-20010904/DTD/svg10.dtd">
<svg version="1.0" xmlns="http://www.w3.org/2000/svg"
 width="600.000000pt" height="600.000000pt" viewBox="0 0 600.000000 600.000000"
 preserveAspectRatio="xMidYMid meet">

<g transform="translate(0.000000,600.000000) scale(0.100000,-0.100000)"
fill="#000000" stroke="none">
<path d="M1948 4888 l-1038 -600 0 -1212 0 -1211 1046 -603 1045 -603 1044
603 1045 603 -3 1213 -2 1213 -1038 600 c-571 329 -1044 599 -1050 598 -7 -1
-479 -271 -1049 -601z m1265 -575 l67 -6 0 -37 0 -36 -75 -12 c-127 -20 -166
-51 -173 -137 -4 -51 -6 -55 -31 -56 -22 0 -150 -32 -218 -54 -22 -7 -23 -5
-23 49 0 127 -50 168 -242 201 -37 6 -38 7 -38 50 l0 45 333 0 c182 0 362 -3
400 -7z m112 -340 c39 -9 64 -18 58 -20 -9 -3 -13 -25 -13 -63 l0 -58 -62 26
c-124 51 -313 40 -442 -25 -82 -41 -194 -162 -244 -264 -136 -274 -144 -710
-19 -992 33 -77 78 -158 107 -194 19 -25 19 -54 -1 -161 l-10 -52 -59 31
c-187 100 -341 312 -404 556 -39 149 -39 365 -1 528 40 176 139 349 268 472
146 139 298 205 542 237 52 7 207 -5 280 -21z m429 -90 c3 -42 6 -186 6 -320
l0 -243 -48 0 -49 0 -17 62 c-47 168 -130 324 -213 399 -38 34 -38 35 -35 102
2 37 7 67 12 67 5 0 51 -18 102 -40 50 -22 92 -38 93 -37 0 1 13 21 28 45 25
39 31 42 71 42 l43 0 7 -77z m-727 -825 c-2 -690 -5 -788 -19 -829 -66 -188
-182 -306 -357 -366 -78 -27 -244 -31 -326 -9 -124 33 -225 110 -274 207 -77
154 -64 324 31 404 29 25 38 27 102 23 109 -5 156 -51 156 -150 0 -60 -16 -99
-84 -208 -25 -41 -46 -80 -46 -86 0 -23 83 -84 134 -99 153 -46 302 14 357
143 50 116 52 139 56 908 l4 722 42 29 c58 42 98 61 159 77 29 8 57 15 61 15
4 1 6 -351 4 -781z m973 -157 l0 -48 -57 -7 c-80 -9 -138 -37 -160 -78 -16
-29 -18 -60 -18 -284 l1 -251 -93 -37 c-88 -34 -231 -76 -259 -76 -9 0 -14 19
-16 53 l-3 52 49 30 c38 23 52 38 59 64 5 19 7 123 5 231 -3 220 -8 237 -76
268 -36 16 -37 18 -34 65 3 38 0 47 -13 47 -14 0 -16 -8 -13 -45 l3 -46 -35 5
c-19 3 -59 8 -87 12 l-53 6 0 39 0 39 328 3 c180 1 360 3 400 5 l72 2 0 -49z
m-628 -731 c-3 -37 0 -50 10 -51 7 -1 -12 -8 -42 -16 -62 -16 -375 -31 -368
-17 2 5 15 33 27 61 22 49 26 52 50 45 44 -12 223 -5 271 11 25 8 47 15 50 16
3 1 3 -21 2 -49z"/>
</g>
</svg>
